# xmcd CD database file
#
# Track frame offsets:
#	150
#	12658
#	23595
#	38695
#	52934
#	67779
#	83094
#	97873
#	109281
#	124178
#	139135
#	151751
#
# Disc length: 2196 seconds
#
# Revision: 0
# Processed by: cddbd v1.5.1PL2 Copyright (c) Steve Scherf et al.
# Submitted via: CDex 1.60beta1-cs1
#
DISCID=8908920c
DTITLE=Various Artist - Jazz Love Songs 2
DYEAR=1900
DGENRE=Jazz
TTITLE0=Somebody Loves Me
TTITLE1=I'm Gonna Sit Right Down And Write Myself A Letter
TTITLE2=Bewitched
TTITLE3=Day By Day
TTITLE4=Everybody Loves Somebody
TTITLE5=The Man I Love
TTITLE6=Sweet Lorraine
TTITLE7=I Can't Get Started
TTITLE8=The Song Is You
TTITLE9=Lover Man
TTITLE10=All Of Me
TTITLE11=Angel Eyes
EXTD=
EXTT0=
EXTT1=
EXTT2=
EXTT3=
EXTT4=
EXTT5=
EXTT6=
EXTT7=
EXTT8=
EXTT9=
EXTT10=
EXTT11=
PLAYORDER=
